<svg width="14" height="17" fill="none" xmlns="http://www.w3.org/2000/svg"><g opacity=".299" fill="#fff"><path fill-rule="evenodd" clip-rule="evenodd" d="M6.916.375a6.84 6.84 0 014.267 1.483 6.816 6.816 0 012.587 4.997 6.874 6.874 0 01-1.997 5.23l-4.558 4.498a.48.48 0 01-.659-.002l-4.494-4.493a6.873 6.873 0 01-2-5.233c.11-1.974 1.029-3.749 2.586-4.997A6.836 6.836 0 016.916.375zm-3.063 6.86a3.065 3.065 0 003.063 3.062 3.064 3.064 0 003.062-3.062 3.065 3.065 0 00-3.062-3.063 3.065 3.065 0 00-3.063 3.063z"/><path d="M6.916 5.742a1.493 1.493 0 10.001 2.986 1.493 1.493 0 00-.001-2.986z"/></g></svg>