<svg width="25" height="22" viewBox="0 0 25 22" fill="none" xmlns="http://www.w3.org/2000/svg">
<path d="M15.3688 20.5704L23.5824 12.1735C24.3348 11.3997 24.3348 10.1437 23.5824 9.37248L15.3688 0.970679C14.6101 0.196864 13.3821 0.200746 12.6234 0.970679C11.8723 1.74579 11.8723 2.99664 12.6234 3.77175L17.4285 8.68308L2.01437 8.68308C0.900866 8.68308 -1.90735e-05 9.60987 -1.90735e-05 10.757C-1.90735e-05 11.9028 0.900866 12.8309 2.01437 12.8309L17.4575 12.8309L12.6234 17.7681C11.8723 18.5419 11.8723 19.7941 12.6234 20.5679C13.3809 21.343 14.6089 21.3443 15.3688 20.5705V20.5704Z" fill="white"/>
</svg>
